<?xml version="1.0" standalone="no"?>
<!DOCTYPE svg PUBLIC "-//W3C//DTD SVG 20010904//EN"
 "http://www.w3.org/TR/2001/REC-SVG-20010904/DTD/svg10.dtd">
<svg version="1.0" xmlns="http://www.w3.org/2000/svg"
 width="512.000000pt" height="512.000000pt" viewBox="0 0 512.000000 512.000000"
 preserveAspectRatio="xMidYMid meet">
<metadata>
Created by potrace 1.11, written by Peter Selinger 2001-2013
</metadata>
<g transform="translate(0.000000,512.000000) scale(0.100000,-0.100000)"
fill="#000000" stroke="none">
<path d="M4070 4952 c-14 -2 -140 -32 -280 -67 -140 -35 -267 -66 -282 -69
-15 -2 -31 -7 -36 -10 -5 -3 -19 -7 -33 -9 -85 -16 -411 -103 -444 -120 -53
-26 -90 -61 -131 -125 -19 -29 -34 -54 -34 -57 0 -2 -46 -84 -102 -182 -55
-98 -111 -196 -123 -218 -12 -22 -63 -113 -113 -202 -50 -89 -97 -172 -104
-185 -7 -13 -15 -25 -18 -28 -3 -3 -18 -31 -35 -62 -25 -48 -163 -293 -256
-457 -14 -25 -39 -68 -54 -96 -36 -65 -176 -310 -178 -312 -1 0 -27 21 -57 49
-63 58 -160 110 -246 132 -82 22 -230 16 -308 -12 -223 -80 -377 -291 -380
-517 0 -55 14 -164 24 -184 4 -9 23 -47 41 -86 36 -73 138 -186 194 -215 17
-8 32 -18 35 -21 12 -13 142 -55 184 -58 14 -2 0 -27 -137 -248 -73 -117 -146
-236 -164 -265 -17 -29 -35 -58 -40 -64 -13 -17 -33 -48 -40 -64 -4 -8 -44
-73 -89 -145 -132 -211 -144 -244 -144 -390 -1 -212 109 -380 300 -458 142
-59 297 -50 452 25 45 21 141 137 573 682 17 21 38 48 49 60 10 11 30 37 45
56 41 54 64 80 72 80 3 0 11 -26 18 -57 26 -134 142 -305 241 -355 14 -7 37
-20 52 -30 76 -51 294 -74 398 -41 241 77 393 268 407 513 5 84 2 106 -20 181
-61 200 -216 344 -416 387 l-82 18 103 119 c118 138 149 173 163 189 6 6 46
53 90 105 44 52 87 102 95 110 8 9 67 77 130 151 63 74 119 140 125 146 5 6
33 37 61 70 64 73 439 508 508 588 28 33 67 77 87 98 20 21 34 38 31 38 -3 0
5 11 18 25 12 13 27 22 33 18 6 -3 7 -1 4 4 -4 6 3 21 14 34 11 13 28 33 37
44 21 25 49 90 56 130 3 17 8 107 11 200 5 168 9 296 21 615 10 274 7 304 -32
381 -24 49 -89 111 -139 134 -36 17 -121 32 -155 27z"/>
</g>
</svg>
